<svg width="255" height="55" viewBox="0 0 255 55" fill="none" xmlns="http://www.w3.org/2000/svg">
<path fill-rule="evenodd" clip-rule="evenodd" d="M37.0983 13.1382L36.2344 12.5962C34.6186 11.5823 32.7842 10.677 30.7267 9.88353C28.7161 9.10811 26.7465 8.70428 24.8134 8.65941L24.808 8.65928C23.2189 8.61396 21.9149 8.79754 20.8683 9.1736L20.8568 9.17774L20.8452 9.1816C19.802 9.52873 18.938 9.99576 18.2354 10.5706C17.5771 11.1482 17.0992 11.7923 16.7826 12.5033C16.4412 13.2699 16.2615 13.9874 16.2218 14.6606L16.2215 14.6664C16.1419 15.8972 16.4715 16.9595 17.217 17.9038C18.0808 18.9357 19.2448 19.8862 20.735 20.7439C22.2941 21.5925 23.9252 22.4183 25.6285 23.2214C27.6904 24.153 29.6548 25.2557 31.5211 26.5293C33.524 27.8137 35.1222 29.4876 36.3054 31.5417C37.5481 33.6989 37.9605 36.4198 37.6615 39.612C37.5058 41.5182 36.9651 43.4077 36.0558 45.2761C35.1802 47.1747 33.9228 48.8606 32.2971 50.3326C30.6938 51.828 28.6998 52.9933 26.3417 53.8451C23.9832 54.7146 21.2561 55.0833 18.1846 54.9843L18.1793 54.9842L18.174 54.984C15.845 54.885 13.6081 54.5384 11.4657 53.9416L11.4518 53.9377L11.438 53.9335C9.36953 53.2944 7.41906 52.5062 5.58817 51.5678L5.57322 51.5601L5.55853 51.552C3.77499 50.5629 2.15764 49.4462 0.709653 48.2002L0 47.5895L4.95695 40.6433L5.81377 41.4208C6.80849 42.3235 7.99553 43.1918 9.38167 44.0229C10.75 44.7958 12.2116 45.4347 13.7683 45.9386C15.3653 46.3929 16.9063 46.6637 18.3927 46.7561C20.328 46.7528 21.9975 46.4369 23.4217 45.835C24.9039 45.1811 26.0485 44.2827 26.8895 43.1494L26.8931 43.1445C27.7786 41.9661 28.2872 40.6226 28.417 39.0891C28.4965 37.7869 28.1731 36.6945 27.4687 35.7571L27.4544 35.7381L27.4411 35.7184C26.7163 34.6545 25.7238 33.7208 24.4392 32.9249L24.4214 32.9139L24.4041 32.9022C23.1169 32.0303 21.685 31.2456 20.1053 30.5499L20.1012 30.5481L20.0971 30.5463C18.5843 29.8643 17.0262 29.0865 15.423 28.2136L15.4171 28.2104L15.4113 28.2071C13.8206 27.314 12.3508 26.2949 11.0035 25.1492C9.59088 23.9481 8.49279 22.4848 7.71225 20.7707L7.70685 20.7589L7.70175 20.7469C6.94802 18.9735 6.72485 16.95 6.97754 14.7139C7.23343 11.7763 8.154 9.20129 9.76371 7.02434C11.3623 4.8625 13.4503 3.21991 16.0049 2.09791L16.0083 2.09641L16.0117 2.09493C18.6029 0.979222 21.4782 0.430931 24.6215 0.430931H24.6433L24.6652 0.431858C26.9822 0.530276 29.1212 0.850424 31.0765 1.39981C32.9965 1.8919 34.757 2.50982 36.3543 3.25717C37.9352 3.99689 39.3769 4.81476 40.6763 5.71273L41.4908 6.27552L37.0983 13.1382ZM30.8094 2.39065C28.9386 1.86395 26.876 1.55272 24.6215 1.45696C21.5995 1.45696 18.8653 1.98365 16.4189 3.03705C14.0205 4.09044 12.0777 5.62264 10.5907 7.63365C9.10371 9.64467 8.24028 12.0387 8.00044 14.8159C7.76059 16.9226 7.97645 18.7661 8.64801 20.3461C9.36753 21.9262 10.3749 23.2669 11.67 24.3682C12.9652 25.4695 14.3802 26.451 15.9152 27.3129C17.4982 28.1747 19.0332 28.9409 20.5202 29.6112C22.1511 30.3294 23.6381 31.1434 24.9812 32.0531C26.3723 32.915 27.4756 33.9445 28.291 35.1415C29.1545 36.2906 29.5382 37.6313 29.4423 39.1635C29.2984 40.8872 28.7228 42.4194 27.7154 43.7601C26.7561 45.0529 25.4609 46.0584 23.83 46.7767C22.247 47.447 20.4242 47.7822 18.3616 47.7822C16.7786 47.6864 15.1477 47.3991 13.4688 46.9203C11.8379 46.3936 10.3029 45.7233 8.86387 44.9093C7.76567 44.2516 6.77921 43.5659 5.9045 42.8525C5.63302 42.631 5.37229 42.4069 5.12234 42.18L1.38081 47.423C2.77189 48.6201 4.33086 49.6974 6.05772 50.655C7.83255 51.5648 9.7273 52.3309 11.742 52.9533C13.8046 53.5279 15.9632 53.8631 18.2177 53.9589C21.1917 54.0546 23.782 53.6955 25.9886 52.8815C28.2431 52.0675 30.1138 50.9663 31.6009 49.5777C33.1358 48.1892 34.3111 46.6091 35.1265 44.8375C35.99 43.0658 36.4936 41.2942 36.6375 39.5226C36.9253 36.4582 36.5176 33.9684 35.4143 32.0531C34.3111 30.1379 32.8241 28.5817 30.9533 27.3847C29.1305 26.1398 27.2118 25.0625 25.1971 24.1527C23.4702 23.3387 21.8153 22.5008 20.2324 21.6389C18.6494 20.7292 17.3782 19.6998 16.4189 18.5506C15.5075 17.4014 15.0998 16.0847 15.1957 14.6004C15.2437 13.7864 15.4595 12.9485 15.8433 12.0866C16.227 11.2248 16.8026 10.4587 17.5701 9.78831C18.3856 9.11797 19.3689 8.59128 20.5202 8.20823C21.7194 7.7773 23.1584 7.58577 24.8373 7.63365C26.9 7.68154 28.9866 8.11247 31.0972 8.92645C33.2078 9.74043 35.1026 10.6741 36.7814 11.7275L40.0913 6.55632C38.8441 5.69446 37.453 4.90442 35.918 4.1862C34.383 3.46798 32.6801 2.86946 30.8094 2.39065ZM59.4774 1.52878H73.2923C75.6427 1.52878 77.8013 1.84001 79.768 2.46247C81.7827 3.08493 83.5095 3.99467 84.9486 5.1917C86.4356 6.38874 87.5868 7.87306 88.4023 9.64467C89.2178 11.3684 89.6255 13.3794 89.6255 15.6777C89.6255 17.8324 89.2657 20.011 88.5462 22.2135C87.8267 24.3682 86.6754 26.3792 85.0925 28.2466C83.5575 30.0661 81.5428 31.5504 79.0485 32.6995C76.5541 33.8008 73.5561 34.3514 70.0544 34.3514H62.5714L60.2689 53.4561H53.0736L59.4774 1.52878ZM63.483 35.3775L61.1805 54.4821H51.9114L58.5683 0.502752H73.2923C75.7324 0.502752 77.9962 0.825747 80.0754 1.48338C82.199 2.13992 84.0468 3.10757 85.6002 4.39817C87.2092 5.69495 88.455 7.30362 89.334 9.21115C90.2247 11.0961 90.6534 13.2606 90.6534 15.6777C90.6534 17.9482 90.274 20.2341 89.5235 22.5316L89.5214 22.538C88.7574 24.8257 87.538 26.95 85.8772 28.9093C84.2314 30.8595 82.0888 32.4289 79.4792 33.6311L79.4718 33.6346L79.4643 33.6379C76.8074 34.8109 73.6602 35.3775 70.0544 35.3775H63.483ZM78.9457 23.0343L78.9496 23.0291C79.7991 21.9135 80.3851 20.7988 80.7283 19.6853L80.7335 19.6683L80.7394 19.6514C81.1467 18.4768 81.3304 17.4927 81.3304 16.6832C81.3304 15.5073 81.0582 14.342 80.4968 13.1781C79.9675 12.0808 79.129 11.1708 77.9394 10.4499L77.9281 10.443L77.917 10.4359C76.7917 9.71381 75.2304 9.30608 73.1484 9.30608H66.7191L64.596 26.646H70.702C72.7948 26.646 74.4686 26.282 75.7709 25.6111C77.1424 24.9045 78.1894 24.041 78.9457 23.0343ZM63.4348 27.672L65.8092 8.28005H73.1484C75.3549 8.28005 77.1297 8.71099 78.4729 9.57285C79.816 10.3868 80.7993 11.4402 81.4229 12.733C82.0465 14.0258 82.3583 15.3425 82.3583 16.6832C82.3583 17.6409 82.1424 18.7421 81.7107 19.987C81.327 21.232 80.6794 22.4529 79.768 23.65C78.9046 24.7991 77.7294 25.7567 76.2423 26.5228C74.7553 27.2889 72.9085 27.672 70.702 27.672H63.4348ZM109.385 48.4849L109.381 48.4815C106.912 46.3191 104.957 43.6357 103.51 40.4489C102.048 37.228 101.332 33.5357 101.332 29.3957C101.332 26.1048 101.957 22.7558 103.191 19.3535C104.432 15.8853 106.269 12.7154 108.695 9.8476C111.144 6.90529 114.211 4.54512 117.879 2.76328C121.593 0.910777 125.854 0 130.637 0C133.919 0 137.105 0.546277 140.189 1.63835C143.331 2.73415 146.132 4.35601 148.584 6.50336C151.055 8.66798 153.01 11.3771 154.456 14.6109C155.917 17.8311 156.633 21.5223 156.633 25.661C156.633 28.9526 156.008 32.3253 154.774 35.7739L154.772 35.7783C153.531 39.1984 151.695 42.3656 149.272 45.2775L149.27 45.2808L149.267 45.2841C146.817 48.1789 143.75 50.5141 140.083 52.295C136.415 54.1001 132.153 54.9849 127.327 54.9849C124.045 54.9849 120.859 54.4383 117.774 53.3457C114.68 52.2499 111.883 50.6295 109.389 48.4883L109.385 48.4849ZM139.631 51.3733C143.181 49.6495 146.131 47.3991 148.482 44.622C150.832 41.797 152.607 38.7326 153.806 35.4288C155.005 32.0771 155.605 28.8211 155.605 25.661C155.605 21.6389 154.909 18.0957 153.518 15.0313C152.127 11.919 150.256 9.33344 147.906 7.27455C145.555 5.21564 142.869 3.6595 139.847 2.60611C136.873 1.55272 133.803 1.02603 130.637 1.02603C125.984 1.02603 121.883 1.91183 118.333 3.68344C114.784 5.40717 111.834 7.68154 109.483 10.5065C107.133 13.2837 105.358 16.3481 104.159 19.6998C102.96 23.0036 102.36 26.2356 102.36 29.3957C102.36 33.4178 103.056 36.961 104.447 40.0254C105.838 43.0898 107.708 45.6514 110.059 47.7103C112.457 49.7692 115.144 51.3254 118.118 52.3788C121.092 53.4322 124.162 53.9589 127.327 53.9589C132.028 53.9589 136.13 53.097 139.631 51.3733ZM142.501 39.5248L142.505 39.5193C144.155 37.5068 145.363 35.3199 146.137 32.9553L146.14 32.9469L146.143 32.9385C146.974 30.5435 147.382 28.2389 147.382 26.0201C147.382 23.6584 146.95 21.4728 146.096 19.4524L146.09 19.4399L146.085 19.4272C145.271 17.3502 144.098 15.5274 142.564 13.9507L142.559 13.9455L142.554 13.9403C141.019 12.3186 139.216 11.0578 137.135 10.1547L137.122 10.1493L137.11 10.1435C135.102 9.20794 132.854 8.7315 130.349 8.7315C126.88 8.7315 123.928 9.37773 121.462 10.6308L121.459 10.6325L121.455 10.6342C118.989 11.8653 116.949 13.4747 115.32 15.4601C113.717 17.4725 112.531 19.6612 111.755 22.0296C110.971 24.4261 110.583 26.7605 110.583 29.0366C110.583 31.3549 110.992 33.5499 111.808 35.6295C112.623 37.7106 113.775 39.5352 115.263 41.1117C116.801 42.6907 118.587 43.9555 120.627 44.9074C122.688 45.8001 124.965 46.2534 127.471 46.2534C130.943 46.2534 133.898 45.6303 136.365 44.4225C138.882 43.1424 140.919 41.5096 142.497 39.5303L142.501 39.5248ZM136.825 45.3402C134.187 46.633 131.069 47.2794 127.471 47.2794C124.833 47.2794 122.411 46.8006 120.204 45.843C118.046 44.8375 116.151 43.4968 114.52 41.8209C112.937 40.1451 111.714 38.2059 110.85 36.0033C109.987 33.8008 109.555 31.4786 109.555 29.0366C109.555 26.6425 109.963 24.2006 110.778 21.7108C111.594 19.2209 112.841 16.9226 114.52 14.8159C116.247 12.7091 118.405 11.0093 120.996 9.71649C123.634 8.37581 126.752 7.70548 130.349 7.70548C132.988 7.70548 135.386 8.20823 137.545 9.21374C139.751 10.1714 141.67 11.512 143.301 13.2358C144.932 14.9116 146.179 16.8508 147.042 19.0534C147.954 21.208 148.41 23.5303 148.41 26.0201C148.41 28.3663 147.978 30.7843 147.114 33.2741C146.299 35.7639 145.028 38.0622 143.301 40.169C141.622 42.2758 139.463 43.9995 136.825 45.3402ZM170.751 0.502752H207.361L206.238 9.3779H192.426L186.886 54.4821H177.619L183.16 9.3779H169.628L170.751 0.502752ZM184.321 8.35187L178.781 53.4561H185.976L191.516 8.35187H205.331L206.195 1.52878H171.658L170.794 8.35187H184.321ZM250.047 13.1382L249.183 12.5962C247.567 11.5823 245.733 10.677 243.675 9.88353C241.665 9.10811 239.695 8.70428 237.762 8.65941L237.756 8.65928C236.167 8.61394 234.863 8.79754 233.817 9.1736L233.805 9.17774L233.794 9.1816C232.75 9.52873 231.887 9.99576 231.184 10.5706C230.526 11.1482 230.048 11.7923 229.731 12.5033C229.39 13.2699 229.21 13.9874 229.17 14.6606L229.17 14.6664C229.09 15.8972 229.42 16.9594 230.165 17.9038C231.029 18.9356 232.193 19.8861 233.684 20.7439C235.242 21.5924 236.874 22.4183 238.577 23.2213C240.639 24.1529 242.603 25.2556 244.469 26.5292C246.472 27.8136 248.071 29.4876 249.254 31.5417C250.497 33.6989 250.909 36.4196 250.61 39.6117C250.454 41.5179 249.914 43.4075 249.004 45.276C248.129 47.1747 246.871 48.8608 245.245 50.3329C243.642 51.8281 241.648 52.9933 239.29 53.8451C236.932 54.7146 234.205 55.0833 231.133 54.9843L231.128 54.9842L231.122 54.984C228.794 54.885 226.557 54.5384 224.414 53.9416L224.4 53.9377L224.387 53.9335C222.318 53.2944 220.368 52.5062 218.537 51.5678L218.522 51.5601L218.507 51.552C216.723 50.5629 215.106 49.4462 213.658 48.2002L212.949 47.5895L217.905 40.6433L218.762 41.4208C219.757 42.3235 220.944 43.1918 222.33 44.0229C223.698 44.7958 225.16 45.4347 226.717 45.9386C228.314 46.3929 229.855 46.6637 231.341 46.7561C233.276 46.7528 234.946 46.4369 236.37 45.8351C237.852 45.1812 238.997 44.2827 239.838 43.1494L239.842 43.1445C240.727 41.9661 241.236 40.6227 241.366 39.0892C241.445 37.787 241.122 36.6946 240.417 35.7571L240.403 35.7381L240.39 35.7184C239.665 34.6545 238.672 33.7208 237.388 32.9249L237.37 32.9139L237.353 32.9022C236.065 32.0303 234.633 31.2456 233.054 30.5499L233.05 30.5481L233.046 30.5463C231.533 29.8643 229.975 29.0865 228.372 28.2136L228.366 28.2104L228.36 28.2071C226.769 27.314 225.299 26.2949 223.952 25.1492C222.539 23.9481 221.441 22.4848 220.661 20.7707L220.655 20.7589L220.65 20.7469C219.896 18.9733 219.673 16.9496 219.926 14.7133C220.182 11.776 221.103 9.20115 222.712 7.02434C224.311 4.8625 226.399 3.21991 228.953 2.09791L228.957 2.09641L228.96 2.09493C231.551 0.979222 234.427 0.430931 237.57 0.430931H237.592L237.614 0.431858C239.931 0.530276 242.07 0.850424 244.025 1.39981C245.945 1.8919 247.706 2.50982 249.303 3.25717C250.884 3.99689 252.325 4.81476 253.625 5.71273L254.439 6.27552L250.047 13.1382ZM243.758 2.39065C241.887 1.86395 239.824 1.55272 237.57 1.45696C234.548 1.45696 231.814 1.98365 229.367 3.03705C226.969 4.09044 225.026 5.62264 223.539 7.63365C222.052 9.64467 221.189 12.0387 220.949 14.8159C220.709 16.9226 220.925 18.7661 221.597 20.3461C222.316 21.9262 223.323 23.2669 224.619 24.3682C225.914 25.4695 227.329 26.451 228.864 27.3129C230.447 28.1747 231.982 28.9409 233.469 29.6112C235.1 30.3294 236.587 31.1434 237.93 32.0531C239.321 32.915 240.424 33.9445 241.24 35.1415C242.103 36.2906 242.487 37.6313 242.391 39.1635C242.247 40.8872 241.671 42.4194 240.664 43.7601C239.705 45.0529 238.409 46.0584 236.778 46.7767C235.196 47.447 233.373 47.7822 231.31 47.7822C229.727 47.6864 228.096 47.3991 226.417 46.9203C224.786 46.3936 223.251 45.7233 221.812 44.9093C220.714 44.2516 219.728 43.5659 218.853 42.8525C218.582 42.631 218.321 42.4069 218.071 42.18L214.329 47.423C215.72 48.6201 217.279 49.6974 219.006 50.655C220.781 51.5648 222.676 52.3309 224.69 52.9533C226.753 53.5279 228.912 53.8631 231.166 53.9589C234.14 54.0546 236.731 53.6955 238.937 52.8815C241.192 52.0675 243.062 50.9663 244.549 49.5777C246.084 48.1892 247.26 46.6091 248.075 44.8375C248.938 43.0658 249.442 41.2942 249.586 39.5226C249.874 36.4582 249.466 33.9684 248.363 32.0531C247.26 30.1379 245.773 28.5817 243.902 27.3847C242.079 26.1398 240.16 25.0625 238.146 24.1527C236.419 23.3387 234.764 22.5008 233.181 21.6389C231.598 20.7292 230.327 19.6998 229.367 18.5506C228.456 17.4014 228.048 16.0847 228.144 14.6004C228.192 13.7864 228.408 12.9485 228.792 12.0866C229.176 11.2248 229.751 10.4587 230.519 9.78831C231.334 9.11797 232.317 8.59128 233.469 8.20823C234.668 7.7773 236.107 7.58577 237.786 7.63365C239.848 7.68154 241.935 8.11247 244.046 8.92645C246.156 9.74043 248.051 10.6741 249.73 11.7275L249.73 11.7268L253.04 6.55647C251.792 5.69461 250.401 4.90442 248.867 4.1862C247.332 3.46798 245.629 2.86946 243.758 2.39065Z" fill="white"/>
</svg>
